<?xml version="1.0" encoding="UTF-8" standalone="no"?><!DOCTYPE svg PUBLIC "-//W3C//DTD SVG 1.1//EN" "http://www.w3.org/Graphics/SVG/1.1/DTD/svg11.dtd"><svg width="100%" height="100%" viewBox="0 0 7067 2534" version="1.1" xmlns="http://www.w3.org/2000/svg" xmlns:xlink="http://www.w3.org/1999/xlink" xml:space="preserve" xmlns:serif="http://www.serif.com/" style="fill-rule:evenodd;clip-rule:evenodd;stroke-linejoin:round;stroke-miterlimit:2;"><g id="Fundo"><path d="M1521.671,240.936c105.917,4.418 228.256,3.889 435.106,99.957c35.262,16.377 196.96,105.009 176.264,122.275c-53.027,44.236 -159.893,43.37 -163.185,71.599c-1.053,9.029 -1.166,273.195 1.172,282.8c7.199,29.569 154.586,-1.399 217.754,-64.433c38.422,-38.34 27.117,13.847 27.325,106.074c0.406,179.77 -0.104,1123.751 -0.227,1124.615c-4.151,29.082 -373.404,371.819 -887.297,268.714c-1034.92,-207.641 -1098.487,-1679.456 -61.613,-1977.662c104.072,-29.931 234.152,-33.392 254.701,-33.938Zm62.21,1626.852c33.617,-4.992 237.533,-35.27 376.305,-197.152c357.898,-417.501 43.396,-980.503 -369.503,-1018.422c-635.02,-58.317 -895.742,722.593 -444.475,1086.837c188.485,152.138 372.264,131.918 437.673,128.737Z" style="fill:#fdfefd;"/><path d="M4433.817,2011.654c0.412,217.149 3.304,225.817 -13.676,227.96c-6.865,0.866 -355.568,0.585 -386.487,0.56c-25.776,-0.021 -22.963,-9.069 -114.797,-140.55c-401.05,-574.198 -928.508,-1366.838 -925.572,-1323.06c2.568,38.298 2.364,38.322 2.346,1421.419c-0,28.31 10.671,41.864 -17.792,42.189c-25.948,0.297 -308.802,3.53 -324.365,-0.868c-13.189,-3.727 -9.427,-9.874 -10.556,-282.85c-0.544,-131.396 -3.999,-966.411 0.632,-1642.461c0.027,-3.912 0.311,-45.359 10.024,-47.866c4.491,-1.159 345.396,0.611 420.841,-0.143c39.071,-0.391 48.456,-12.543 78.235,32.716c50.664,77 57.076,72.325 643.386,955.786c19.083,28.754 235.831,355.354 244.576,355.341c8.459,-0.013 4.19,-5.47 4.564,-170.963c1.287,-569.067 -4.258,-1163.468 4.493,-1170.545c5.019,-4.059 372.838,-6.266 380.399,1.557c11.719,12.127 4.39,1602.439 3.748,1741.78Z" style="fill:#fefefd;"/><path d="M4949.952,1061.797c862.606,0.968 864.754,-2.794 872.805,4.387c11.126,9.923 5.299,330.032 4.776,358.728c-0.398,21.891 -14.533,14.211 -359.585,15.582c-528.426,2.099 -537.235,-6.613 -542.588,11.153c-2.062,6.843 -0.749,392.916 -0.56,393.872c3.294,16.681 12.671,11.764 486.381,12.305c532.206,0.608 537.734,-3.456 542.173,7.513c0.098,0.243 9.776,362.156 -4.27,371.823c-7.274,5.006 -1433.757,3.086 -1438.279,0.76c-11.183,-5.753 -6.779,-135.555 -6.514,-1923.925c0.002,-16.515 -8.237,-49.104 19.922,-48.931c441.356,2.71 1416.682,-2.339 1425.257,2.3c11.31,6.118 4.775,64.183 6.319,364.071c0.127,24.64 -13.526,20.019 -189.823,19.869c-65.852,-0.056 -797.24,-0.679 -823.147,-0.218c-25.741,0.459 -18.22,14.98 -18.76,256.402c-0.3,134.134 -0.449,133.697 -0.27,137.876c0.778,18.185 7.856,13.663 26.165,16.434Z" style="fill:#fdfdfd;"/></g></svg>