<svg width="273" height="66" viewBox="0 0 273 66" fill="none" xmlns="http://www.w3.org/2000/svg">
<path d="M0 32C0 26.4772 4.47715 22 10 22H273V66H10C4.47715 66 0 61.5228 0 56V32Z" fill="#C89F6C"/>
<path d="M12.6977 10C12.6977 4.47715 17.1748 0 22.6977 0H273V44H22.6977C17.1748 44 12.6977 39.5228 12.6977 34V10Z" fill="#6F390D"/>
<line y1="-0.5" x2="28.8447" y2="-0.5" transform="matrix(-0.513577 0.858044 -0.70334 -0.710854 198.93 8.25)" stroke="white"/>
<line y1="-0.5" x2="28.8447" y2="-0.5" transform="matrix(-0.513577 0.858044 -0.70334 -0.710854 213.744 8.25)" stroke="white"/>
<line y1="-0.5" x2="28.8447" y2="-0.5" transform="matrix(-0.513577 0.858044 -0.70334 -0.710854 228.558 8.25)" stroke="white"/>
<line y1="-0.5" x2="28.8447" y2="-0.5" transform="matrix(-0.513577 0.858044 -0.70334 -0.710854 243.372 8.25)" stroke="white"/>
<line y1="-0.5" x2="28.8447" y2="-0.5" transform="matrix(-0.513576 0.858044 -0.703339 -0.710854 258.186 8.25)" stroke="white"/>
<line y1="-0.5" x2="28.8447" y2="-0.5" transform="matrix(-0.513577 0.858044 -0.70334 -0.710854 273 8.25)" stroke="white"/>
</svg>
