<svg width="273" height="66" viewBox="0 0 273 66" fill="none" xmlns="http://www.w3.org/2000/svg">
<path d="M273 33.9478C273 39.4706 268.523 43.9478 263 43.9478L0 43.9478V7.62939e-06L263 7.62939e-06C268.523 7.62939e-06 273 4.47716 273 10V33.9478Z" fill="#C89F6C"/>
<path d="M260.465 56C260.465 61.5229 255.988 66.0001 250.465 66.0001L0.163147 66.0001V22.0523L250.465 22.0523C255.988 22.0523 260.465 26.5294 260.465 32.0523V56Z" fill="#6F390D"/>
<line y1="-0.5" x2="28.8315" y2="-0.5" transform="matrix(0.512624 0.858613 0.705077 -0.70913 74.1511 33.0413)" stroke="white"/>
<line y1="-0.5" x2="28.8315" y2="-0.5" transform="matrix(0.512624 0.858613 0.705077 -0.70913 59.3372 33.0251)" stroke="white"/>
<line y1="-0.5" x2="28.8315" y2="-0.5" transform="matrix(0.512624 0.858613 0.705077 -0.70913 44.5232 33.009)" stroke="white"/>
<line y1="-0.5" x2="28.8315" y2="-0.5" transform="matrix(0.512624 0.858613 0.705077 -0.709131 29.7092 32.9927)" stroke="white"/>
<line y1="-0.5" x2="28.8315" y2="-0.5" transform="matrix(0.512624 0.858613 0.705077 -0.709131 14.8953 32.9766)" stroke="white"/>
<line y1="-0.5" x2="28.8315" y2="-0.5" transform="matrix(0.512624 0.858613 0.705077 -0.709131 0.0814209 32.9604)" stroke="white"/>
</svg>
