<svg width="40" height="40" viewBox="0 0 40 40" fill="none" xmlns="http://www.w3.org/2000/svg">
<rect width="40" height="40" rx="20" fill="#6F390D"/>
<path d="M27.204 23.71L25.489 21.995L23.27 11.61C23.1832 11.2123 22.9527 10.8605 22.6227 10.6222C22.2927 10.3839 21.8863 10.2757 21.4814 10.3185C21.0766 10.3612 20.7018 10.5518 20.4288 10.8538C20.1558 11.1558 20.0038 11.5479 20.002 11.955V23.534C20.002 24.305 20.309 25.046 20.854 25.591L23.089 27.826M27.204 23.71L23.089 27.826M27.204 23.71L29.262 25.768L25.146 29.883L23.089 27.826M12.794 23.71L14.509 21.995L16.728 11.61C16.8148 11.2123 17.0452 10.8605 17.3753 10.6222C17.7053 10.3839 18.1117 10.2757 18.5166 10.3185C18.9214 10.3612 19.2962 10.5518 19.5692 10.8538C19.8422 11.1558 19.9942 11.5479 19.996 11.955V23.534C19.9965 23.9161 19.9215 24.2945 19.7753 24.6475C19.629 25.0005 19.4145 25.3212 19.144 25.591L16.91 27.826M12.794 23.71L16.91 27.826M12.794 23.71L10.736 25.768L14.852 29.883L16.91 27.826" stroke="#D9B281" stroke-width="2" stroke-linecap="square"/>
</svg>
